Coordinates
version=1
nRows=5
nColumns=60
inDegrees=yes

Units are S.I. units (second, meters, Newtons, ...)
If the header above contains a line with 'inDegrees', this indicates whether rotational values are in degrees (yes) or radians (no).

endheader
time	pelvis_tilt	pelvis_list	pelvis_rotation	pelvis_tx	pelvis_ty	pelvis_tz	hip_flexion_r	hip_adduction_r	hip_rotation_r	knee_angle_r_beta	knee_angle_r	ankle_angle_r	subtalar_angle_r	mtp_angle_r	hip_flexion_l	hip_adduction_l	hip_rotation_l	knee_angle_l_beta	knee_angle_l	ankle_angle_l	subtalar_angle_l	mtp_angle_l	L5_S1_Flex_Ext	L5_S1_Lat_Bending	L5_S1_axial_rotation	L4_L5_Flex_Ext	L4_L5_Lat_Bending	L4_L5_axial_rotation	L3_L4_Flex_Ext	L3_L4_Lat_Bending	L3_L4_axial_rotation	L2_L3_Flex_Ext	L2_L3_Lat_Bending	L2_L3_axial_rotation	L1_L2_Flex_Ext	L1_L2_Lat_Bending	L1_L2_axial_rotation	L1_T12_Flex_Ext	L1_T12_Lat_Bending	L1_T12_axial_rotation	Abs_r3	Abs_r2	Abs_r1	Abs_t1	Abs_t2	arm_flex_r	arm_add_r	arm_rot_r	elbow_flex_r	pro_sup_r	wrist_flex_r	wrist_dev_r	arm_flex_l	arm_add_l	arm_rot_l	elbow_flex_l	pro_sup_l	wrist_flex_l	wrist_dev_l
     75.07000000	     -0.33565420	     14.50858290	     93.24216586	      0.41009001	      0.94265740	      0.27093617	     -4.42677775	     -4.52354212	     -2.76484689	      0.33938937	    -19.44557865	     12.62672850	      0.00000000	      0.00000000	     -3.76764581	     -6.61518916	     -2.82404127	      0.30791335	    -17.64213525	     12.40654029	      0.00000000	      0.00000000	     -6.89379744	      0.02392368	     -0.30829229	    -12.80247123	      0.03181849	     -0.32756055	    -11.32581982	      0.05816803	     -0.32756055	     -7.87892110	      0.05816803	     -0.26975575	     -6.40158031	      0.04878516	     -0.25048748	     -3.93911586	      0.03705777	     -0.23121921	    -49.24170576	      0.27062941	     -1.71462920	      0.00000000	      0.00000000	     18.57658376	    -29.55623219	     10.13071032	     88.76415287	     59.83151562	     -0.59497487	     34.80791744	     19.50914606	    -26.22298434	      9.16043490	     85.54273846	     66.03080703	      7.71782591	     19.84147656
     75.08000000	     -0.33861654	     14.54304133	     93.19689676	      0.41001413	      0.94278517	      0.26894645	     -4.79165871	     -4.54225578	     -2.88900550	      0.33232210	    -19.04065370	     12.75625682	      0.00000000	      0.00000000	     -4.10000279	     -6.60025250	     -2.98407477	      0.30268430	    -17.34253288	     12.67716031	      0.00000000	      0.00000000	     -6.79688329	      0.02128357	     -0.29906808	    -12.62249196	      0.02830715	     -0.31775983	    -11.16659956	      0.05174888	     -0.31775983	     -7.76815791	      0.05174888	     -0.26168457	     -6.31158582	      0.04340146	     -0.24299281	     -3.88373911	      0.03296826	     -0.22430106	    -48.54945766	      0.24076405	     -1.66332692	      0.00000000	      0.00000000	     18.90907903	    -30.06145624	     10.47354758	     89.14082335	     59.81627321	     -0.55678624	     34.91013361	     19.76954449	    -26.53704376	      9.71744059	     85.99129127	     65.94681200	      7.60715552	     20.01595040
     75.09000000	     -0.34314567	     14.62358856	     93.18448294	      0.40992852	      0.94298868	      0.26739871	     -5.00875093	     -4.54994066	     -2.92971780	      0.33155319	    -18.99659846	     12.76662632	      0.00000000	      0.00000000	     -4.31547825	     -6.59342229	     -3.01871420	      0.30230761	    -17.32095007	     12.70765455	      0.00000000	      0.00000000	     -6.71974926	      0.01907090	     -0.29922147	    -12.47924634	      0.02536430	     -0.31792281	    -11.03987605	      0.04636899	     -0.31792281	     -7.68000143	      0.04636899	     -0.26181878	     -6.23995916	      0.03888938	     -0.24311744	     -3.83966473	      0.02954083	     -0.22441610	    -47.99849697	      0.21573384	     -1.66418003	      0.00000000	      0.00000000	     19.37376957	    -30.22329831	     10.40811307	     89.31691038	     59.80628674	     -0.54716146	     34.92588370	     20.16496679	    -26.58148966	      9.77089286	     86.19452075	     65.91511242	      7.57229762	     20.05394529
     75.10000000	     -0.36374034	     14.77529344	     93.17267803	      0.40982813	      0.94326681	      0.26577524	     -5.42980272	     -4.56979508	     -3.01119982	      0.32664791	    -18.71554689	     12.82072428	      0.00000000	      0.00000000	     -4.71127852	     -6.57448451	     -3.07793901	      0.29849059	    -17.10225125	     12.84653434	      0.00000000	      0.00000000	     -6.64694589	      0.01600907	     -0.29442115	    -12.34404320	      0.02129206	     -0.31282247	    -10.92026740	      0.03892446	     -0.31282247	     -7.59679445	      0.03892446	     -0.25761851	     -6.17235395	      0.03264570	     -0.23921718	     -3.79806488	      0.02479805	     -0.22081586	    -47.47846977	      0.18109781	     -1.63748211	      0.00000000	      0.00000000	     20.00877043	    -30.69155315	     10.92108738	     89.35672322	     59.67525708	     -0.49418822	     35.15365887	     20.85735196	    -26.90799053	     10.53210060	     86.18878417	     65.64588806	      7.30279240	     20.41298590
     75.11000000	     -0.37137713	     14.80334481	     93.16130175	      0.40965854	      0.94333477	      0.26446792	     -5.56034974	     -4.59547982	     -3.05517437	      0.32628467	    -18.69473448	     12.82600154	      0.00000000	      0.00000000	     -4.84756711	     -6.56062128	     -3.11374689	      0.29819950	    -17.08557265	     12.84799908	      0.00000000	      0.00000000	     -6.57956206	      0.01517050	     -0.29438266	    -12.21890470	      0.02017676	     -0.31278158	    -10.80956251	      0.03688555	     -0.31278158	     -7.51978148	      0.03688555	     -0.25758483	     -6.10978133	      0.03093568	     -0.23918591	     -3.75956176	      0.02349910	     -0.22078699	    -46.99715383	      0.17161172	     -1.63726803	      0.00000000	      0.00000000	     20.55583040	    -30.79765906	     10.79422487	     89.50106628	     59.65616041	     -0.48686587	     35.16385306	     21.33886982	    -26.91517865	     10.50351462	     86.35313733	     65.60837166	      7.26335214	     20.44162816
